<?xml version="1.0" standalone="no"?>
<!DOCTYPE svg PUBLIC "-//W3C//DTD SVG 20010904//EN"
 "http://www.w3.org/TR/2001/REC-SVG-20010904/DTD/svg10.dtd">
<svg version="1.0" xmlns="http://www.w3.org/2000/svg"
 width="1144.000000pt" height="1144.000000pt" viewBox="0 0 1144.000000 1144.000000"
 preserveAspectRatio="xMidYMid meet">
<metadata>
Created by potrace 1.11, written by Peter Selinger 2001-2013
</metadata>
<g transform="translate(0.000000,1144.000000) scale(0.100000,-0.100000)"
fill="#000000" stroke="none">
<path d="M8200 9900 c-74 -49 -180 -117 -235 -153 -103 -66 -245 -158 -395
-255 -138 -89 -209 -135 -310 -200 -52 -33 -99 -65 -105 -69 -5 -5 -28 -20
-50 -33 -22 -13 -98 -63 -170 -110 -71 -47 -134 -87 -140 -90 -5 -3 -37 -23
-70 -45 -33 -22 -64 -42 -70 -45 -13 -7 -148 -95 -202 -131 -23 -16 -46 -29
-52 -29 -6 0 -11 -4 -11 -8 0 -5 -10 -13 -22 -19 -20 -8 -33 -1 -103 56 -44
36 -88 73 -98 81 -11 8 -25 21 -32 28 -8 6 -16 12 -18 12 -3 0 -18 11 -33 24
-34 30 -163 135 -218 180 -22 17 -68 55 -103 84 -34 28 -65 52 -69 52 -4 0
-12 6 -18 14 -9 11 -145 124 -194 161 -7 5 -21 17 -31 25 -9 8 -33 27 -53 42
-20 15 -42 33 -50 40 -7 7 -31 26 -53 43 -21 16 -47 36 -56 45 -9 8 -35 31
-59 50 -24 19 -62 50 -84 68 -23 17 -48 38 -56 45 -43 37 -96 77 -102 77 -3 0
-62 -69 -129 -152 -68 -84 -126 -155 -129 -158 -3 -3 -71 -86 -150 -185 -79
-99 -146 -182 -150 -185 -3 -3 -21 -25 -40 -50 -62 -80 -63 -80 -170 -106 -8
-2 -60 -17 -115 -34 -55 -17 -107 -33 -115 -35 -8 -2 -30 -9 -49 -14 -19 -6
-37 -8 -42 -6 -4 3 -9 2 -11 -3 -2 -6 -130 -47 -208 -66 -8 -2 -42 -12 -75
-22 -33 -10 -64 -19 -70 -20 -50 -13 -204 -58 -220 -65 -20 -9 -262 -78 -325
-94 -8 -2 -15 -4 -15 -5 0 -1 -13 -4 -30 -6 -16 -3 -34 -9 -40 -14 -6 -5 -25
-11 -42 -14 -16 -3 -61 -15 -99 -26 -38 -12 -98 -30 -134 -41 -36 -10 -74 -21
-85 -24 -36 -8 -160 -45 -175 -52 -8 -3 -19 -7 -25 -8 -5 -1 -12 -3 -15 -4 -3
-2 -12 -4 -20 -6 -17 -3 -139 -38 -435 -125 -115 -34 -239 -69 -275 -79 -36
-10 -112 -33 -170 -50 -58 -18 -113 -34 -123 -36 -9 -3 -25 -7 -35 -10 -9 -2
-64 -18 -122 -35 -137 -42 -193 -58 -260 -76 -66 -17 -119 -33 -140 -41 -8 -3
-19 -7 -25 -8 -5 -2 -30 -8 -55 -16 -25 -7 -51 -14 -57 -16 -28 -7 -39 -10
-53 -16 -8 -3 -58 -17 -110 -32 -52 -14 -102 -28 -110 -31 -8 -3 -16 -5 -17
-5 -2 0 -17 -5 -35 -10 -18 -6 -44 -12 -57 -15 -13 -3 -34 -10 -45 -16 -12 -6
-21 -10 -21 -9 0 3 -25 -3 -102 -25 -8 -2 -8 -18 3 -61 8 -32 18 -65 21 -73 7
-18 10 -28 17 -55 2 -11 9 -32 15 -47 6 -16 8 -28 5 -28 -4 0 -2 -6 4 -12 6
-7 11 -17 11 -23 1 -5 6 -28 12 -50 6 -22 12 -44 14 -50 1 -5 5 -17 8 -25 4
-8 11 -35 17 -60 12 -51 15 -59 23 -80 4 -8 13 -41 21 -73 8 -31 18 -62 21
-67 4 -6 8 -23 11 -38 3 -15 13 -54 24 -87 20 -64 43 -148 41 -153 -1 -1 5
-18 13 -37 8 -19 13 -35 10 -35 -3 0 0 -9 6 -21 7 -11 14 -33 16 -47 3 -15 7
-34 11 -42 3 -8 7 -19 8 -25 2 -5 15 -50 30 -100 15 -49 33 -112 40 -140 14
-50 35 -122 53 -182 6 -17 8 -34 4 -37 -3 -3 1 -6 8 -6 7 0 11 -2 8 -5 -3 -3
15 -72 39 -153 24 -81 46 -155 48 -166 7 -31 36 -130 42 -146 3 -8 7 -21 9
-28 4 -19 44 -154 51 -172 3 -8 7 -22 8 -30 1 -8 9 -40 19 -70 9 -30 16 -59
17 -65 1 -5 5 -18 11 -28 5 -10 11 -26 13 -35 9 -46 28 -113 80 -287 50 -166
82 -277 90 -310 1 -5 5 -17 8 -25 4 -8 13 -40 21 -70 8 -30 33 -118 56 -195
23 -77 43 -147 45 -155 2 -8 31 -107 65 -220 33 -113 62 -214 65 -225 5 -20
15 -55 60 -205 12 -41 32 -111 45 -155 12 -44 31 -108 42 -141 10 -34 21 -74
24 -90 3 -15 9 -34 13 -43 5 -9 9 -19 10 -24 2 -17 14 -63 19 -72 4 -5 7 -16
8 -25 2 -16 72 -264 82 -290 3 -8 13 -42 23 -75 9 -33 31 -107 48 -165 17 -58
33 -114 36 -125 2 -11 19 -71 38 -133 19 -61 33 -112 30 -112 -2 0 3 -14 12
-30 9 -17 13 -30 9 -30 -4 0 -1 -7 6 -15 7 -8 10 -15 7 -15 -3 0 6 -34 18 -75
13 -41 21 -75 19 -75 -2 0 3 -14 11 -30 9 -17 14 -34 11 -39 -3 -4 1 -20 9
-34 8 -15 14 -30 14 -32 2 -30 26 -95 35 -95 6 0 47 12 91 26 44 14 87 27 96
29 9 2 72 20 139 40 67 20 130 38 139 40 66 16 138 39 149 47 6 6 12 8 12 6 0
-5 116 26 285 77 50 15 96 28 103 28 6 0 12 4 12 9 0 5 4 7 8 4 5 -3 37 4 73
15 35 12 71 22 79 24 8 2 15 4 15 5 0 1 7 3 15 5 8 1 71 19 140 40 69 20 132
38 140 40 8 2 15 4 15 5 0 1 7 3 15 5 8 1 48 13 89 25 41 12 82 23 92 25 10 2
26 8 36 13 10 6 21 10 26 10 22 1 74 16 85 24 6 6 12 8 12 5 0 -3 15 -1 33 5
35 11 184 55 232 68 17 5 69 20 118 34 207 61 339 99 402 116 17 5 109 32 205
61 96 28 184 53 195 55 11 1 22 3 25 4 3 1 8 2 13 1 4 0 7 3 7 8 0 9 74 26
104 23 10 -1 26 -10 35 -20 9 -9 36 -33 61 -52 65 -50 78 -61 119 -97 20 -18
39 -33 43 -33 4 0 14 -7 22 -16 9 -8 46 -40 83 -69 38 -30 75 -61 83 -67 8 -7
50 -42 94 -77 102 -81 96 -76 133 -108 17 -16 46 -39 64 -53 18 -14 38 -31 45
-38 7 -6 17 -12 23 -12 6 0 11 -4 11 -8 0 -5 19 -22 43 -39 23 -17 56 -44 74
-60 18 -15 47 -39 64 -53 18 -14 37 -30 43 -35 6 -6 62 -51 124 -100 61 -49
112 -93 112 -97 0 -4 6 -8 14 -8 7 0 19 -7 26 -15 7 -9 25 -24 40 -35 l27 -19
89 112 c49 62 94 118 101 125 7 7 34 41 60 75 26 34 52 67 59 72 6 6 28 32 50
59 60 76 78 93 92 89 6 -3 12 -9 12 -14 0 -8 93 -160 113 -184 4 -5 38 -57 74
-115 37 -58 68 -106 69 -108 1 -2 53 30 115 71 63 40 129 82 147 92 17 11 32
23 32 27 0 4 4 8 10 8 5 0 54 29 107 63 54 35 132 86 173 112 41 27 122 79
179 117 57 37 105 68 108 68 3 0 23 13 46 29 88 62 369 241 377 241 4 0 10 4
12 8 2 4 89 62 193 129 105 67 195 125 200 130 8 7 93 62 191 123 108 68 210
136 212 142 2 4 8 8 14 8 6 0 33 16 59 35 27 19 53 35 58 35 5 0 16 6 23 13
24 22 108 77 118 77 6 0 10 5 10 10 0 6 5 10 10 10 6 0 32 15 58 33 26 19 52
36 57 38 6 2 55 34 110 70 55 36 115 74 133 84 17 11 32 23 32 27 0 4 5 8 10
8 6 0 44 23 85 50 41 28 77 50 80 50 3 0 11 5 18 11 13 11 208 139 212 139 1
0 56 35 122 79 167 110 197 128 206 127 5 -1 13 7 18 17 6 9 14 17 20 17 5 0
38 20 73 45 36 25 68 45 71 45 5 0 52 33 110 77 6 5 28 21 50 37 22 16 50 38
62 50 12 12 42 39 68 60 25 22 43 45 41 52 -3 8 0 11 8 8 14 -5 110 102 129
143 6 13 14 23 19 23 4 0 8 7 8 15 0 8 3 15 8 15 4 0 19 26 34 58 79 171 91
223 91 377 0 66 -4 138 -8 160 -4 22 -8 47 -9 55 -6 43 -37 140 -67 206 -10
23 -21 54 -25 68 -3 14 -11 26 -17 26 -6 0 -8 3 -4 6 3 4 -5 22 -18 42 -13 19
-22 39 -19 44 3 4 2 8 -3 8 -4 0 -14 14 -22 32 -8 17 -22 39 -33 50 -10 10
-17 20 -15 22 3 6 -185 300 -195 304 -4 2 -8 8 -8 13 0 5 -26 48 -58 97 -32
48 -73 110 -90 137 -18 28 -37 57 -42 65 -37 57 -137 209 -147 225 -7 11 -16
28 -19 38 -3 9 -10 17 -15 17 -5 0 -9 5 -9 10 0 6 -5 16 -11 23 -11 13 -118
179 -159 246 -14 23 -35 54 -47 69 -13 15 -23 31 -23 36 0 4 -13 25 -28 45
-15 20 -34 48 -41 63 -8 15 -22 37 -33 47 -10 11 -18 23 -18 26 0 5 -37 63
-187 292 -29 44 -53 84 -53 88 0 3 -6 13 -12 20 -26 29 -38 44 -38 49 0 3 -39
65 -86 138 -48 73 -104 160 -125 193 -21 33 -43 65 -49 72 -5 7 -10 16 -10 21
0 5 -9 17 -20 27 -11 10 -20 22 -20 26 0 5 -53 89 -117 188 -201 307 -238 365
-241 378 -2 7 -8 13 -13 13 -5 0 -9 7 -9 15 0 8 -4 15 -8 15 -5 0 -15 12 -23
28 -7 15 -39 65 -70 112 -30 47 -74 114 -97 150 -23 36 -46 72 -52 80 -6 8
-29 44 -52 80 -23 36 -64 98 -90 138 -26 41 -48 76 -48 78 0 3 -9 14 -20 26
-11 12 -20 28 -20 35 0 7 -4 13 -10 13 -5 0 -10 4 -10 10 0 5 -40 71 -90 146
-49 75 -90 138 -90 140 0 2 -16 26 -35 53 -19 26 -35 51 -35 55 0 4 -5 12 -11
19 -5 7 -46 67 -90 135 -43 67 -80 122 -81 121 -2 0 -64 -40 -138 -89z"/>
</g>
</svg>
