<?xml version="1.0" standalone="no"?>
<!DOCTYPE svg PUBLIC "-//W3C//DTD SVG 20010904//EN"
 "http://www.w3.org/TR/2001/REC-SVG-20010904/DTD/svg10.dtd">
<svg version="1.0" xmlns="http://www.w3.org/2000/svg"
 width="700.000000pt" height="700.000000pt" viewBox="0 0 700.000000 700.000000"
 preserveAspectRatio="xMidYMid meet">
<metadata>
Created by potrace 1.11, written by Peter Selinger 2001-2013
</metadata>
<g transform="translate(0.000000,700.000000) scale(0.100000,-0.100000)"
fill="#000000" stroke="none">
<path d="M1 3499 l0 -3500 2007 4 c1104 2 2016 6 2027 9 11 3 65 9 120 12 56
4 114 9 130 12 17 3 46 7 65 8 19 2 58 7 85 11 28 5 59 9 70 10 52 5 339 63
425 86 117 32 269 80 315 100 11 4 61 24 110 44 229 93 510 263 677 412 84 74
222 218 277 289 35 43 68 86 74 94 7 8 37 53 68 100 170 261 265 479 384 881
15 52 61 255 70 309 3 19 10 58 15 85 5 28 12 70 15 94 3 23 7 55 9 70 10 58
23 181 32 286 3 44 9 103 11 130 3 28 7 929 9 2003 l3 1952 -3499 0 -3499 0 0
-3501z"/>
</g>
</svg>
